PathFileType	4	(X/Y/Z)	19_1_7_p0_0-262_filt_butterworth.trc
DataRate	CameraRate	NumFrames	NumMarkers	Units	OrigDataRate	OrigDataStartFrame	OrigNumFrames
59.0	59.0	5	27	m	59.0	0	262
Frame#	Time	RHip			RKnee			RAnkle			RBigToe			RSmallToe			RHeel			LHip			LKnee			LAnkle			LBigToe			LSmallToe			LHeel			Neck			Head			Nose			RShoulder			RElbow			RWrist			RThumb			RIndex			RPinky			LShoulder			LElbow			LWrist			LThumb			LIndex			LPinky			
		X1	Y1	Z1	X2	Y2	Z2	X3	Y3	Z3	X4	Y4	Z4	X5	Y5	Z5	X6	Y6	Z6	X7	Y7	Z7	X8	Y8	Z8	X9	Y9	Z9	X10	Y10	Z10	X11	Y11	Z11	X12	Y12	Z12	X13	Y13	Z13	X14	Y14	Z14	X15	Y15	Z15	X16	Y16	Z16	X17	Y17	Z17	X18	Y18	Z18	X19	Y19	Z19	X20	Y20	Z20	X21	Y21	Z21	X22	Y22	Z22	X23	Y23	Z23	X24	Y24	Z24	X25	Y25	Z25	X26	Y26	Z26	X27	Y27	Z27	
0	0.0	0.3121716891035567	0.9673378434130478	0.3563690544388996	0.2768252079195227	0.5436593057978848	0.4531086679067766	0.26918890308311283	0.11021120111735222	0.5849662390277015	0.2768174736332212	0.09914868253995521	0.37965933195901214	0.33987910779923963	0.10336661464759458	0.38581288915909767	0.24375510046382165	0.04492294040152921	0.6548570795871066	0.10471586352571552	0.9619303538686015	0.3603094447195154	0.09346352830651453	0.5433982799196512	0.45337762931617887	0.0762627926362669	0.12201513555538092	0.5307291305120918	0.11594279719677578	0.11292057464032873	0.3152242744732157	0.05265784822761892	0.09369213707299771	0.38602267879162	0.08901666889860996	0.06014113278682572	0.5841095695226377	0.21327860449037786	1.5301741602107057	0.3693585178462445	0.21583860069219415	1.7910342306750022	0.3285273074369602	0.22493132496400586	1.647054538499724	0.22810571416772624	0.37653684283919414	1.4412966062519117	0.3489672281083808	0.407085842804164	1.1840779766205625	0.35146544446962136	0.42439304502673286	0.934496546119022	0.3223002314366189	0.3845683022050596	0.820924332950818	0.2751861082559382	0.405722617761004	0.797787003105195	0.28868512407866526	0.4260773629066195	0.8007773901660862	0.33233739800120105	0.04564260589672537	1.44266206606489	0.3677112710500341	0.0024148010819659083	1.1784865054026847	0.3702855859114267	-0.011818909050346393	0.9491976648231449	0.31251407464068404	0.007916504047491465	0.8335241469889958	0.3111688658551964	-0.009568554509009309	0.8346385988099718	0.27422376679609045	-0.050045760444080496	0.818843464357292	0.3501622536346816	
1	0.0169491525423728	0.3118135479152838	0.9669974415419276	0.3542867884433031	0.27674201217951966	0.5439689419377663	0.45304229648379946	0.26953750132658316	0.11056346975584838	0.5843728682705556	0.2768864622644183	0.09713947205201548	0.3814404210547932	0.3424217725189076	0.10238697692152203	0.39199723327425084	0.24391807339493018	0.044528635917091296	0.6553661055753927	0.10427615732829669	0.9621590090984573	0.36010369676044507	0.09348336082254462	0.5433473647737429	0.45340464375642753	0.07524136896780448	0.12060512697751011	0.5332095216975024	0.11596729082138642	0.11316443537219979	0.31500250357187837	0.05134593256131498	0.09261774397783631	0.3857619521477892	0.08973883838431038	0.059304288360011975	0.5845354070287269	0.21338822510501124	1.5284605679938463	0.36917095394326666	0.2158668271943739	1.791314708880234	0.3284725973086112	0.22546820496659253	1.6468904501168584	0.228308509221585	0.37534338998711186	1.4417898603869255	0.3476983549746745	0.4069310484046045	1.184167607342292	0.3507910941156269	0.42453093839013134	0.9344564464043084	0.3225594546809521	0.3847823192529119	0.8186355766453277	0.2753488329726331	0.403605833259914	0.7942023493019406	0.2948385170172617	0.4282255578064098	0.8005675458250701	0.3266036439385069	0.04569571355009734	1.4408463890808083	0.3682935992464043	0.0022083608946651284	1.1779542311412006	0.3702047264954077	-0.011804229502478477	0.9490206706603576	0.31244475932604476	0.010346233588701561	0.8314411423571242	0.31786776433250563	-0.010138069881130817	0.8348258117238161	0.27386393990699115	-0.05067953971498929	0.817481666472811	0.348388019010987	
2	0.0338983050847457	0.31150832079805385	0.9667032705055217	0.3525428311967012	0.27668269309844223	0.5441954414368331	0.4529967422893537	0.2697919832021545	0.11080778219004266	0.5839644749690329	0.2772398821927537	0.09530463073577475	0.38375924428501523	0.3446220343687102	0.10078729846563163	0.39811830246353674	0.2440465687990395	0.0442134327377973	0.6557817323609827	0.10388138690693373	0.962346989115052	0.35990948668044065	0.0935029712559875	0.5433094984058818	0.4534204318490319	0.07438635500938855	0.11942622580461257	0.5352832437645837	0.11600691256223089	0.11317417492722122	0.31486877961622933	0.05009737577099103	0.09160403650379922	0.3854867067307534	0.09027264911013429	0.05862141032071782	0.5849405487194657	0.2134555566067935	1.5273798017488975	0.36902608554871275	0.215882934767959	1.7913668253340533	0.3284349697465628	0.22562224134486128	1.646863964922465	0.22837336859941026	0.37445236422141415	1.4425781427772386	0.34575008355620956	0.4069057179958032	1.1841741536967958	0.35063033599966625	0.424535848816128	0.934425744066974	0.32264967558795105	0.3848538456068482	0.817334723865806	0.2751539935504968	0.4021523020541576	0.7923147270153935	0.2985335691471206	0.4295844849313712	0.8010528202646614	0.3229758013677088	0.04573554897889303	1.4396929063872481	0.3686217646946112	0.0021023276613177043	1.177799456198105	0.37012836806873733	-0.011797459052958151	0.9489815376207862	0.3123885573086224	0.01177248704922307	0.8303655374047885	0.32134514939941405	-0.010251637239554736	0.8348925886733141	0.2738264475423247	-0.05126971089929688	0.8166332676027536	0.34722672410270145	
3	0.0508474576271186	0.3112522119600969	0.9664547302505265	0.3511120140797772	0.2766442513765173	0.5443480354323155	0.4529693317180719	0.2699626479039617	0.1109571573206972	0.5837186405734706	0.27778705126952147	0.09367879520297681	0.386373449015794	0.34644982623493914	0.09884621230972539	0.4038184902452387	0.2441435908968523	0.043971252011650724	0.6561105070367685	0.10352986480454324	0.9624957471058884	0.3597276923151003	0.09352223371740713	0.5432833628650918	0.4534262346388402	0.07368498320743791	0.11846072764122773	0.5369814471605334	0.11604785282511337	0.1130312179093412	0.31481622710961704	0.04895432477514088	0.09071162905825829	0.3852266065867382	0.09063251585727718	0.05808897260482463	0.5853153912842058	0.21348832650583885	1.5268089353553909	0.36891839656523223	0.21588735426598513	1.791275689244208	0.3284126620726837	0.2254628682482661	1.6469378949495805	0.22832263223635338	0.3738237814259792	1.4435493825071886	0.3433899491163858	0.4069764672403314	1.1841196185819707	0.3508534582048739	0.42443723224787316	0.9344038062197169	0.3226054817574216	0.38484495437358457	0.8168087272284366	0.27482406875091236	0.40128086781459343	0.7917151363816167	0.3003782465120081	0.43030888685580254	0.8019919153777597	0.32104517377475994	0.0457632953684895	1.4390742762673474	0.36874911480191735	0.002075223970674308	1.1779038880148747	0.37006755609177033	-0.011795420353230788	0.9490328177769928	0.3123420425837273	0.012397350744579892	0.8300828347690546	0.322284265961056	-0.01000080344650046	0.8348651213585029	0.2740355028881785	-0.05180458694969733	0.8161971679628907	0.3465625103707233	
4	0.0677966101694915	0.3110414256096429	0.9662512207236378	0.3499691684732146	0.2766236877139716	0.5444359550614436	0.4529573911645865	0.2700597946261398	0.11102461404857442	0.583612946534206	0.2784372873460158	0.09229660206536591	0.3890406826132455	0.34787508100388603	0.09684235148360432	0.4087401901376401	0.24421214390907134	0.043796014886653946	0.656358976695642	0.1032199035640418	0.9626067362584693	0.3595591915000221	0.09354102231736747	0.5432676402003968	0.4534232931707003	0.07312448600837143	0.11769092809189495	0.5383352823325493	0.11607630201583802	0.11281698892250791	0.31483797055538965	0.04795892649225836	0.0900011360485864	0.38501131576196884	0.09083285340693455	0.057703449148213765	0.5856503314122993	0.21349426231226146	1.5266250426928587	0.3688423708954745	0.21588051654148785	1.7911264098184443	0.3284039116088431	0.22505951982626118	1.6470750522312405	0.22817864006756594	0.3734176574846853	1.4445915086611119	0.34088548691860293	0.40710991180076006	1.1840260048957134	0.35133074881438486	0.42426454462851704	0.9343899999752348	0.3224614607891697	0.38481771865983705	0.8168445393494024	0.27458153733526297	0.40091037421208026	0.791994577536672	0.3009805151556906	0.4305535061540028	0.8031435330572639	0.3204030646456136	0.04578013590426378	1.4388631570042418	0.36872899697558503	0.0021055724114856103	1.1781492340329853	0.3700333360248618	-0.011794936054741752	0.9491270632015399	0.3123017891466697	0.012422910990295924	0.8303785370869884	0.321368358922566	-0.009477115364187383	0.8347696014794193	0.2744153191306399	-0.05227248081888468	0.8160722677689933	0.3462795192759505	
